# xmcd CD database file
#
# Track frame offsets:
#	150
#	20588
#	22058
#	55373
#	77843
#	113400
#	116430
#	142073
#	147425
#	171800
#	204215
#	229245
#	259468
#
# Disc length: 3918 seconds
#
# Revision: 3
# Processed by: cddbd v1.5PL3 Copyright (c) Steve Scherf et al.
# Submitted via: CDex 1.50Beta7
#
DISCID=b90f4c0d
DTITLE=Kei Kobayashi - routine
DYEAR=2002
DGENRE=Club
TTITLE0=Oh! Yeah - INSOMNIA -
TTITLE1=Riverside #1
TTITLE2=The Creator Has A Master Plan
TTITLE3=Asian Window
TTITLE4=Between And Beyond
TTITLE5=Riverside #2
TTITLE6=Dance The Solution
TTITLE7=Door
TTITLE8=From The Day
TTITLE9=The Awakening Suite
TTITLE10=Stealin' The Light
TTITLE11=Indian Summer
TTITLE12=The Creater Has A Master Plan
EXTD=YEAR: 2002
EXTT0=
EXTT1=
EXTT2=
EXTT3=
EXTT4=
EXTT5=
EXTT6=
EXTT7=
EXTT8=
EXTT9=
EXTT10=
EXTT11=
EXTT12=
PLAYORDER=
